<?xml version="1.0" encoding="UTF-8" standalone="no"?>
<svg
   width="2400"
   height="800"
   version="1.1"
   viewBox="0 0 635 211.67"
   id="svg8"
   sodipodi:docname="khai_wordmark.svg"
   xmlns:inkscape="http://www.inkscape.org/namespaces/inkscape"
   xmlns:sodipodi="http://sodipodi.sourceforge.net/DTD/sodipodi-0.dtd"
   xmlns="http://www.w3.org/2000/svg"
   xmlns:svg="http://www.w3.org/2000/svg">
  <defs
     id="defs8" />
  <sodipodi:namedview
     id="namedview8"
     pagecolor="#ffffff"
     bordercolor="#000000"
     borderopacity="0.25"
     inkscape:showpageshadow="2"
     inkscape:pageopacity="0.0"
     inkscape:pagecheckerboard="0"
     inkscape:deskcolor="#d1d1d1">
    <inkscape:page
       x="0"
       y="0"
       width="635"
       height="211.67"
       id="page2"
       margin="0"
       bleed="0" />
  </sodipodi:namedview>
  <g
     transform="translate(-280.49,58.584)"
     id="g8"
     inkscape:export-filename="logonavbar"
     inkscape:export-xdpi="96"
     inkscape:export-ydpi="96">
    <g
       transform="matrix(2.1103,0,0,2.1103,230.83,-107.69)"
       fill="#2f6f7a"
       id="g7">
      <g
         transform="translate(-103.01,19.768)"
         id="g2">
        <path
           d="m 332.5,80.256 v -0.81666 l 1.1272,-0.32645 q 1.6103,-0.48997 2.1739,-1.4699 0.64408,-0.97994 0.64408,-2.6132 v -25.56 q 0,-1.7149 -0.64408,-2.5315 -0.56341,-0.89824 -2.1739,-1.2249 L 332.5,45.4684 v -0.8166 l 14.734,-4.8181 0.80514,0.81666 -0.24155,11.596 v 22.865 q 0,1.6333 0.56341,2.6132 0.64414,0.97995 2.1739,1.4699 l 0.80513,0.24499 v 0.81666 z"
           style="white-space:pre"
           id="path1" />
        <path
           d="m 341.46,37.686 q -1.8438,0 -3.1454,-1.2063 -1.2473,-1.2637 -1.2473,-3.1593 0,-1.953 1.2473,-3.1593 1.3016,-1.2063 3.1454,-1.2063 1.8439,0 3.0912,1.2063 1.2473,1.2063 1.2473,3.1593 0,1.8956 -1.2473,3.1593 -1.2473,1.2063 -3.0912,1.2063 z"
           style="white-space:pre"
           id="path2" />
      </g>
      <g
         transform="translate(-105.1,-18.803)"
         id="g3">
        <path
           transform="matrix(6.0387,0,0,6.0387,-1402.6,-755.23)"
           d="m 284.24,138.13 c -0.48889,0 -0.9422,0.0622 -1.36,0.18665 -0.41778,0.12444 -0.75553,0.31111 -1.0133,0.56 -0.24889,0.24889 -0.37337,0.55559 -0.37337,0.92003 0,0.24 0.0756,0.43105 0.2267,0.57327 0.15111,0.14222 0.34216,0.21334 0.57327,0.21334 0.24889,0 0.45778,-0.0889 0.62667,-0.26665 0.16887,-0.17777 0.26221,-0.45779 0.28001,-0.84001 l 0.0267,-0.14668 c 0.0356,-0.33778 0.1156,-0.57327 0.24004,-0.7066 0.12444,-0.14222 0.29327,-0.21334 0.50661,-0.21334 0.3111,0 0.53784,0.12439 0.68007,0.37328 0.1511,0.24 0.2266,0.66225 0.2266,1.2667 v 1.0534 c -0.19555,0.0356 -0.38223,0.0711 -0.56001,0.10663 -0.17777,0.0267 -0.33777,0.0533 -0.47999,0.08 -0.91556,0.17778 -1.5866,0.44441 -2.0133,0.79996 -0.42667,0.34667 -0.64002,0.72894 -0.64002,1.1467 0,0.55111 0.17329,0.97328 0.51996,1.2666 0.35554,0.29333 0.79111,0.44003 1.3066,0.44003 0.44444,0 0.80442,-0.0978 1.08,-0.29335 0.28444,-0.20444 0.56,-0.44885 0.82667,-0.7333 0.0711,0.30223 0.21781,0.54664 0.44003,0.7333 0.23111,0.17778 0.54218,0.26665 0.93329,0.26665 0.36445,0 0.64446,-0.0577 0.84001,-0.17329 0.20445,-0.11555 0.39112,-0.28001 0.56001,-0.49334 l -0.11998,-0.10663 h -0.29335 c -0.37333,0 -0.56001,-0.20006 -0.56001,-0.60006 v -2.9466 c 0,-0.8711 -0.21773,-1.4978 -0.65329,-1.88 -0.42666,-0.39112 -1.0356,-0.58663 -1.8267,-0.58663 z m 0.64002,3.24 v 2.24 c -0.21333,0.17778 -0.40001,0.31118 -0.56001,0.40007 -0.1511,0.08 -0.31548,0.11998 -0.49326,0.11998 v -9e-5 c -0.24,0 -0.44452,-0.0889 -0.6134,-0.26665 -0.16889,-0.18667 -0.25331,-0.46222 -0.25331,-0.82666 0,-0.42667 0.12002,-0.7645 0.36002,-1.0134 0.24889,-0.25778 0.5778,-0.44 0.98669,-0.54666 0.11555,-0.0177 0.21772,-0.0354 0.30662,-0.0532 0.0889,-0.0177 0.17777,-0.0355 0.26665,-0.0533 z"
           fill="#2f6f7a"
           style="white-space:pre"
           id="path3" />
      </g>
      <g
         transform="translate(-59.492,-18.829)"
         id="g4">
        <path
           d="m 203.09,118.85 v -0.8052 l 0.96619,-0.32186 q 2.8986,-0.96619 2.8986,-4.0257 v -42.995 q 0,-1.6908 -0.56341,-2.496 -0.56341,-0.8052 -2.1739,-1.2077 l -1.2077,-0.32186 v -0.80514 l 14.171,-3.4622 1.2882,0.72464 -0.32186,11.353 v 10.064 q 2.8181,-2.3349 6.0387,-3.9452 3.3011,-1.6908 7.2463,-1.6908 5.2335,0 8.2931,2.9791 3.1401,2.9791 3.1401,9.1788 v 22.705 q 0,1.6103 0.64414,2.5765 0.64415,0.96618 2.2544,1.4493 l 0.64414,0.24154 v 0.8052 h -18.841 v -0.8052 l 0.96619,-0.24154 q 2.8985,-0.96619 2.8985,-4.1063 v -25.282 q 0,-3.2206 -1.1272,-4.4283 -1.0467,-1.2077 -3.7842,-1.2077 -1.7713,0 -3.8647,0.72464 -2.0934,0.64414 -4.2674,2.3349 v 28.019 q 0,3.1401 2.8986,4.0258 l 0.64415,0.16124 v 0.80519 z"
           fill="#2f6f7a"
           style="white-space:pre"
           id="path4" />
      </g>
      <g
         transform="translate(-59.076,-18.828)"
         id="g6">
        <path
           transform="matrix(6.0387,0,0,6.0387,-1402.6,-755.23)"
           d="m 262.64,144.75 v -0.13334 l 0.17333,-0.0533 q 0.26667,-0.08 0.28,-0.26666 0.0133,-0.18667 -0.16,-0.42667 l -2.56,-3.64 3.3733,-3.44 q 0.18667,-0.18667 0.2,-0.36 0.0267,-0.17333 -0.25333,-0.26667 l -0.22667,-0.08 v -0.13333 h 1.9467 v 0.13333 l -0.34666,0.10667 q -0.29333,0.0933 -0.46667,0.22667 -0.17333,0.13333 -0.4,0.35999 l -2.3867,2.44 3.1333,4.5733 q 0.2,0.29333 0.37333,0.48 0.18667,0.18667 0.52,0.29333 l 0.18667,0.0533 v 0.13334 z"
           style="white-space:pre"
           id="path5" />
        <path
           transform="matrix(6.0387,0,0,6.0387,-1402.6,-755.23)"
           d="m 257.72,144.75 v -0.13334 L 258,144.51 q 0.26667,-0.0933 0.34667,-0.25333 0.08,-0.16 0.08,-0.41334 v -6.9733 q 0,-0.26667 -0.08,-0.42667 -0.08,-0.16 -0.34667,-0.25333 l -0.28,-0.10667 v -0.13333 h 3.32 v 0.13333 l -0.29333,0.12 q -0.22667,0.08 -0.30667,0.24 -0.08,0.16 -0.08,0.44 v 6.9733 q 0,0.26666 0.08,0.41333 0.0933,0.14667 0.34667,0.24 l 0.25333,0.10666 v 0.13334 z"
           style="white-space:pre"
           id="path6" />
      </g>
    </g>
  </g>
</svg>
